<svg xmlns="http://www.w3.org/2000/svg" viewBox="0 0 640 760"><defs><linearGradient id="bg" x1="0" y1="0" x2="1" y2="1"><stop stop-color="#5a200f"/><stop offset="1" stop-color="#170806"/></linearGradient><filter id="s"><feDropShadow dx="0" dy="18" stdDeviation="16" flood-opacity=".48"/></filter></defs><rect width="640" height="760" fill="url(#bg)"/><circle cx="320" cy="302" r="215" fill="#f2912f" opacity=".12"/><circle cx="320" cy="302" r="172" fill="none" stroke="#f0c166" stroke-opacity=".2" stroke-width="3"/><g filter="url(#s)" stroke="#21110e" stroke-width="14" stroke-linejoin="round" stroke-linecap="round"><path d="M205 524l-26 161h99l23-111z" fill="#aa6a2f"/><path d="M435 524l26 161h-99l-23-111z" fill="#aa6a2f"/><path d="M168 655h123v57H159c-20 0-26-17-14-31z" fill="#2b211b"/><path d="M472 655H349v57h132c20 0 26-17 14-31z" fill="#2b211b"/><path d="M213 420c-25 53-35 111-22 180h258c13-69 3-127-22-180z" fill="#c17b37"/><path d="M223 430l-76 97 55 41 62-88z" fill="#34231a"/><path d="M417 430l76 97-55 41-62-88z" fill="#34231a"/><ellipse cx="320" cy="301" rx="162" ry="151" fill="#efd2b2"/><path d="M171 272c24-105 85-157 167-157 93 0 143 54 155 128-85-40-211-34-322 29z" fill="#2c1b16"/><path d="M209 174c67-62 159-68 237-12l23 70c-93-35-209-21-302 47z" fill="#a35e2c"/><path d="M199 179c-12-34 17-57 49-44 19-30 56-34 74-8 23-25 62-19 73 10 30-15 59 8 51 39" fill="#261612"/><circle cx="264" cy="304" r="13" fill="#21110e" stroke="none"/><circle cx="378" cy="304" r="13" fill="#21110e" stroke="none"/><path d="M290 360c21 17 43 17 65 0" fill="none"/><path d="M242 167c0-26 22-47 49-47h58c27 0 49 21 49 47" fill="none" stroke="#1e1613" stroke-width="22"/><ellipse cx="276" cy="169" rx="40" ry="25" fill="#48767d"/><ellipse cx="365" cy="169" rx="40" ry="25" fill="#48767d"/><path d="M181 410c-50 12-68 59-61 128l17 119 58-8-3-127" fill="#6f4a24"/><path d="M459 410c50 12 68 59 61 128l-17 119-58-8 3-127" fill="#6f4a24"/><rect x="255" y="482" width="130" height="34" rx="10" fill="#2f221a"/><rect x="307" y="476" width="28" height="45" rx="6" fill="#f0c166"/><path d="M405 458l20 36 31-27 19 33-31 50-52-34z" fill="#d8442e"/><path d="M150 453l-37-72 34-18 44 77z" fill="#c8c1af"/><circle cx="105" cy="365" r="38" fill="#cfd2cc"/><path d="M91 365h28M105 351v28" fill="none" stroke="#9b3b26" stroke-width="6"/></g></svg>