<svg xmlns="http://www.w3.org/2000/svg" viewBox="0 0 640 760"><defs><linearGradient id="bg" x1="0" y1="0" x2="1" y2="1"><stop stop-color="#3b120e"/><stop offset="1" stop-color="#180706"/></linearGradient><filter id="s"><feDropShadow dx="0" dy="18" stdDeviation="16" flood-opacity=".45"/></filter></defs><rect width="640" height="760" fill="url(#bg)"/><circle cx="320" cy="302" r="215" fill="#6a2017" opacity=".32"/><circle cx="320" cy="302" r="172" fill="none" stroke="#f0c166" stroke-opacity=".18" stroke-width="3"/><g filter="url(#s)" stroke="#21110e" stroke-width="14" stroke-linejoin="round" stroke-linecap="round"><path d="M208 525c-20 50-28 104-27 160h94l10-110z" fill="#f1d9b7"/><path d="M432 525c20 50 28 104 27 160h-94l-10-110z" fill="#f1d9b7"/><path d="M177 654h115v56H174c-21 0-32-16-24-31z" fill="#d94a34"/><path d="M463 654H348v56h118c21 0 32-16 24-31z" fill="#d94a34"/><path d="M213 426c-23 46-36 112-25 169h264c11-57-2-123-25-169z" fill="#f7eee1"/><path d="M235 475h170v128H235z" fill="#d74731"/><path d="M239 464l-59 72 64 31 29-91z" fill="#f7eee1"/><path d="M401 464l59 72-64 31-29-91z" fill="#f7eee1"/><ellipse cx="320" cy="302" rx="164" ry="153" fill="#f3dbc0"/><path d="M175 267c24-100 87-151 169-151 82 0 132 44 151 114-83-26-213-24-320 37z" fill="#f6efe1"/><path d="M179 245c74-54 197-72 304-24l-14-60c-116-55-241-28-297 44z" fill="#d9412d"/><path d="M261 144h134v57H261z" fill="#f7eee1"/><path d="M250 164h154"/><circle cx="263" cy="302" r="13" fill="#21110e" stroke="none"/><circle cx="378" cy="302" r="13" fill="#21110e" stroke="none"/><path d="M287 359c24 16 46 16 69 0" fill="none"/><path d="M191 424c-44 0-77 44-62 84l46 123 66-25-41-126" fill="#252221"/><path d="M453 440c34 10 46 48 32 91l-23 74-57-18 24-83" fill="#262321"/><rect x="231" y="462" width="178" height="27" rx="12" fill="#e7c6a1"/><path d="M292 470v100h56V470" fill="#f7eee1"/><rect x="282" y="501" width="76" height="61" rx="12" fill="#4b3f37"/><circle cx="320" cy="531" r="15" fill="#f0c166"/><path d="M138 480l47-40 45 53-50 45z" fill="#f0d5ad"/><path d="M139 471l16-45 73 24-10 37z" fill="#f4ead6"/><path d="M165 447l38 17m-29 8 27 12" fill="none" stroke="#d9412d" stroke-width="7"/></g></svg>